<svg xmlns="http://www.w3.org/2000/svg" version="1.1" xmlns:xlink="http://www.w3.org/1999/xlink" xmlns:svgjs="http://svgjs.dev/svgjs" width="100%" height="100%" viewBox="0 0 1000 600"><rect width="1000" height="600" x="0" y="0" fill="#1a0a40"/><g><rect width="333.3333333333333" height="333.3333333333333" rx="13.333333333333334" ry="13.333333333333334" y="157.46115184915564" fill="#7c6d53" transform="matrix(0.9242902754547697,0,0,0.9242902754547697,0,0.4118255809931526)" x="135.23893737792972"/><path d="M327.61988285068315 343.62187144367067L320.5663116356612 343.62187144367067Q320.5663116356612 334.18734791978056 317.9770259997671 330.1397289947047Q315.4175022677338 326.06234816576796 309.85202624575453 325.19925295380324Q304.25678831991434 324.3361577418385 295.06036002691104 324.7825862997513L295.06036002691104 324.7825862997513L279.40559859610295 325.40758628082926L279.40559859610295 374.4849657473741Q279.40559859610295 380.2587750963794 279.3163128845204 384.3361559253161Q279.197265269077 388.41353675425285 278.7805986150251 391.2111557171729L278.7805986150251 391.2111557171729L319.70321642369646 390.5563938322341Q329.13773994758657 390.3480605052082 335.9829778355825 387.4611558307056Q342.82821572357847 384.54448925234203 346.6972632254892 377.28258471029415Q350.5663107274 369.9909182643854 350.5663107274 357.3421091235234L350.5663107274 357.3421091235234L357.82821526944787 357.3421091235234L356.5484534034312 399.1278221441595L245.9829805603662 399.1278221441595L245.9829805603662 392.0444890252768Q254.13774221823962 391.62782237122485 257.1139326043248 388.29448913880935Q260.1198848942709 384.9909178102548 260.44726583674026 379.0980608458061Q260.7746467792096 373.2052038813574 260.7746467792096 365.7052041084228L260.7746467792096 365.7052041084228L260.7746467792096 273.11592119731233Q260.7746467792096 268.83020704134964 260.9829801062356 264.87187382785635Q261.19131343326154 260.913540614363 261.3996467602875 257.699254997391L261.3996467602875 257.699254997391Q257.5603611622376 257.907588324417 253.69131366032684 258.11592165144293Q249.85202806227696 258.3540168823298 245.9829805603662 258.5623502093557L245.9829805603662 258.5623502093557L245.9829805603662 249.12782668546566L349.04845363049657 249.12782668546566L350.1198821694872 286.62782555013916L343.0663109544653 286.62782555013916Q343.0663109544653 273.97901640927705 339.1972634525545 267.46115946375045Q335.3282159506438 260.913540614363 328.81035900511716 258.65163592093825Q322.2627401557298 256.41949313137434 314.13774040171717 256.62782645840036L314.13774040171717 256.62782645840036L295.685360007989 257.0444931124523Q287.7686935810023 257.28258834333906 284.3460746370044 260.05044540239834Q280.92345569300636 262.8480643653184 280.1496461926243 268.2944927718543Q279.40559859610295 273.7706830822511 279.40559859610295 282.55044472120244L279.40559859610295 282.55044472120244L279.40559859610295 316.8361579689039L319.70321642369646 317.0444912959298L318.18535932679305 298.62187280606247L327.61988285068315 298.62187280606247L327.61988285068315 343.62187144367067Z " fill="#fffddc" transform="matrix(0.9242902754547697,0,0,0.9242902754547697,0,0.4118255809931526)"/><path d="M592.9792783836266 396.0202737656774L553.2837295599704 396.0202737656774L553.2837295599704 390.1834878256435Q559.3096705999128 390.1834878256435 561.6335761130744 387.15700622710744Q563.9845037833658 384.15754678570113 564.3628139831828 378.8071596740034Q564.7681463401296 373.4567725623057 564.7681463401296 366.45803386569105L564.7681463401296 366.45803386569105L564.9573014400381 322.0876518585817Q564.9573014400381 318.98010378865627 565.0383679114275 315.87255571873084Q565.1464565399466 312.73798549167566 565.740943996802 309.44128232184164L565.740943996802 309.44128232184164Q562.2280635699298 309.63043742175023 558.8232717715766 309.8195925216587Q555.4184799732235 310.03576977869693 551.9055995463513 310.2249248786055L551.9055995463513 310.2249248786055L551.9055995463513 302.0372112682802Q560.4716233564935 302.0372112682802 564.849212811519 301.2805908686462Q569.2268022665444 300.4969483118824 571.3615526797975 299.3349955553016Q573.5233252501804 298.1460206415909 574.8744331066697 296.7949127851016L574.8744331066697 296.7949127851016L580.5220639467951 296.7949127851016Q580.7112190467036 298.1460206415909 580.8193076752228 299.902460855027Q580.9003741466121 301.65890106846314 581.0895292465207 303.7936514817163Q581.305706503559 305.9284018949694 581.305706503559 308.6576397650779L581.305706503559 308.6576397650779Q585.5752073300652 304.95560423829716 590.7364393418544 302.0372112682802Q595.8976713536437 299.11881829826325 601.6263686651583 297.3894002419569Q607.355065976673 295.63296002852076 613.0026968167984 295.63296002852076L613.0026968167984 295.63296002852076Q629.9455893371745 295.63296002852076 637.727970590553 306.2256456233971Q645.5103518439315 316.8453533754032 645.5103518439315 339.21969947886635L645.5103518439315 339.21969947886635L645.5103518439315 375.4023678756504Q645.5103518439315 379.2935585023396 645.4022632154123 382.2930179437459Q645.2941745868932 385.31949954228196 644.7267092871676 388.61620271211586L644.7267092871676 388.61620271211586Q647.8342573570931 388.4270476122074 650.8607389556292 388.345981140818Q653.8601983970354 388.2378925122989 656.9677464669609 388.04873741239044L656.9677464669609 388.04873741239044L656.9677464669609 396.0202737656774L617.2992198004345 396.0202737656774L617.2992198004345 390.1834878256435Q623.3251608403768 390.1834878256435 625.6490663535384 387.15700622710744Q627.9999940238299 384.15754678570113 628.3783042236469 378.8071596740034Q628.7566144234639 373.4567725623057 628.7566144234639 366.45803386569105L628.7566144234639 366.45803386569105L628.7566144234639 339.21969947886635Q628.5674593235555 322.46596205839876 623.2170722118577 313.92696040538624Q617.86668510016 305.36093659524397 606.3822683200007 305.55009169515245L606.3822683200007 305.55009169515245Q599.383529623386 305.7392467950609 592.682034655199 309.25212722193316Q585.9535175298822 312.73798549167566 581.4948616034675 318.1964612318925L581.4948616034675 318.1964612318925Q581.684016703376 319.76374634542003 581.684016703376 321.70934165876474Q581.684016703376 323.65493697210934 581.684016703376 325.7896873853624L581.684016703376 325.7896873853624L581.4948616034675 375.4023678756504Q581.4948616034675 379.2935585023396 581.3867729749483 382.2930179437459Q581.305706503559 385.31949954228196 580.7112190467036 388.61620271211586L580.7112190467036 388.61620271211586Q583.8187671166291 388.4270476122074 586.8452487151652 388.345981140818Q589.8447081565714 388.2378925122989 592.9792783836266 388.04873741239044L592.9792783836266 388.04873741239044L592.9792783836266 396.0202737656774ZM669.4249609037925 396.0202737656774L669.4249609037925 390.1834878256435Q675.4509019437348 390.1834878256435 677.8018296140262 387.15700622710744Q680.1257351271879 384.15754678570113 680.5310674841347 378.8071596740034Q680.9093776839517 373.4567725623057 680.9093776839517 366.45803386569105L680.9093776839517 366.45803386569105L680.9093776839517 274.42056668163843Q680.9093776839517 271.313018611713 681.0174663124709 268.4756921130854Q681.0985327838602 265.6653877715877 681.503865140807 261.7741971448984L681.503865140807 261.7741971448984Q677.9909847139347 261.96335224480697 674.5861929155817 262.15250734471545Q671.1814011172286 262.3686846017537 667.6685206903563 262.55783970166226L667.6685206903563 262.55783970166226L667.6685206903563 254.37012609133694Q676.2345445004986 254.37012609133694 681.0174663124709 253.6135056917029Q685.7733659673132 252.8298631349391 688.2053601089941 251.6679103783583Q690.6373542506748 250.4789354646477 691.9884621071641 249.12782760815836L691.9884621071641 249.12782760815836L697.6360929472895 249.12782760815836L697.825248047198 375.4023678756504Q697.825248047198 379.2935585023396 697.6360929472895 382.2930179437459Q697.446937847381 385.31949954228196 696.8524503905256 388.61620271211586L696.8524503905256 388.61620271211586Q699.9870206175809 388.4270476122074 702.9864800589872 388.345981140818Q706.0129616575233 388.2378925122989 709.1205097274487 388.04873741239044L709.1205097274487 388.04873741239044L709.1205097274487 396.0202737656774L669.4249609037925 396.0202737656774ZM724.3069620343887 396.0202737656774L724.3069620343887 390.1834878256435Q730.332903074331 390.1834878256435 732.6568085874927 387.15700622710744Q735.0077362577841 384.15754678570113 735.3860464576011 378.8071596740034Q735.7643566574181 373.4567725623057 735.7643566574181 366.45803386569105L735.7643566574181 366.45803386569105L735.7643566574181 322.0876518585817Q735.7643566574181 318.98010378865627 735.9805339144565 316.1427772900287Q736.169689014365 313.33247294853095 736.5479992141819 309.44128232184164L736.5479992141819 309.44128232184164Q733.0621409444395 309.63043742175023 729.6573491460864 309.8195925216587Q726.2525573477334 310.03576977869693 722.739676920861 310.2249248786055L722.739676920861 310.2249248786055L722.739676920861 302.0372112682802Q731.3057007310034 302.0372112682802 735.9805339144565 301.2805908686462Q740.6283449407797 300.4969483118824 743.0603390824605 299.3349955553016Q745.4923332241412 298.1460206415909 746.8704632377604 296.7949127851016L746.8704632377604 296.7949127851016L752.5180940778857 296.7949127851016L752.5180940778857 375.4023678756504Q752.5180940778857 379.2935585023396 752.4100054493666 382.2930179437459Q752.3019168208474 385.31949954228196 751.734451521122 388.61620271211586L751.734451521122 388.61620271211586Q754.8419995910474 388.4270476122074 757.8684811895833 388.345981140818Q760.8679406309897 388.2378925122989 763.9754887009152 388.04873741239044L763.9754887009152 388.04873741239044L763.9754887009152 396.0202737656774L724.3069620343887 396.0202737656774ZM743.1684277109796 277.52811475156386L743.1684277109796 277.52811475156386Q739.0880819843819 277.52811475156386 735.9805339144565 274.23141158172996Q732.8459636874012 270.90768625476625 732.8459636874012 266.04369797140464L732.8459636874012 266.04369797140464Q732.8459636874012 261.1797096880431 736.0616003858458 257.7749178896901Q739.2772370842904 254.37012609133694 743.3575828108882 254.37012609133694L743.3575828108882 254.37012609133694Q747.8432608944327 254.37012609133694 750.842720335839 257.7749178896901Q753.869201934375 261.1797096880431 753.869201934375 266.04369797140464L753.869201934375 266.04369797140464Q753.869201934375 270.90768625476625 750.6535652359304 274.23141158172996Q747.4379285374858 277.52811475156386 743.1684277109796 277.52811475156386ZM818.6683347316028 399.12782183560284L818.6683347316028 399.12782183560284Q814.1826566480584 399.12782183560284 809.5078234646053 397.8577804505029Q804.8329902811522 396.6147612225327 800.8607331830736 392.912725695752Q796.8614539278652 389.21069016897115 794.5375484147037 382.1038628438374Q792.1866207444122 374.99703551870357 792.1866207444122 363.32346363863576L792.1866207444122 363.32346363863576L792.591953101359 306.90119955164175L777.5946558943275 307.1173768086801L777.5946558943275 298.7405080984463Q782.6748214347274 298.5513529985377 787.917119917906 294.9574061002761Q793.1594184010845 291.33643704488475 797.3478527562014 285.1213409050339Q801.5362871113183 278.90624476518303 803.103572224846 271.50217371162154L803.103572224846 271.50217371162154L809.6969785645139 271.50217371162154L809.6969785645139 298.7405080984463L842.3937886915554 298.7405080984463L842.3937886915554 306.3337342519162L809.6969785645139 306.7120444517333L809.3186683646968 360.8104030255656Q809.3186683646968 369.5655819356165 810.7778648497052 375.699611604078Q812.2370613347138 381.8066191154097 815.5337645045477 384.9411893424649Q818.8574898315114 388.04873741239044 824.0997883146899 388.04873741239044L824.0997883146899 388.04873741239044Q829.5582640549068 388.04873741239044 834.3141637097493 384.9411893424649Q839.0970855217214 381.8066191154097 842.7720988913724 376.3751655323226L842.7720988913724 376.3751655323226L848.0414195316807 380.6446663588289Q843.7448965480447 387.0759397557181 839.5834843500576 390.7779752824988Q835.3950499949407 394.45298865214977 831.5038593682515 396.317517494105Q827.6126687415622 398.1550241789305 824.2889434145985 398.64142300726667Q820.9922402447645 399.12782183560284 818.6683347316028 399.12782183560284ZM904.4636836186747 399.12782183560284L904.4636836186747 399.12782183560284Q891.0336715251709 399.12782183560284 880.2248086732563 392.80463706723276Q869.4429679784715 386.4814522988628 863.2008496814909 374.9159690473142Q856.9857535416401 363.32346363863576 856.9857535416401 347.5695460319703L856.9857535416401 347.5695460319703Q856.9857535416401 333.950378838558 863.1197832101016 322.0876518585817Q869.253812878563 310.2249248786055 880.3328973017755 302.9289424535631Q891.411981724988 295.63296002852076 906.0039465750725 295.63296002852076L906.0039465750725 295.63296002852076Q914.1916601853978 295.63296002852076 921.2984875105318 298.2541092701101Q928.3782926785358 300.87525851169937 933.8367684187526 306.2256456233971Q939.2952441589695 311.5760327350948 942.4027922288949 319.6556577169009Q945.5103402988203 327.7352826987071 945.5103402988203 338.62521202201106L945.5103402988203 338.62521202201106L877.0361941319417 339.7871647785919Q877.0361941319417 354.568284728585 880.2248086732563 365.75545778031653Q883.440445371701 376.94263083204817 890.655361325354 383.07666050050966Q897.8432551218772 389.21069016897115 909.1385168021278 389.21069016897115L909.1385168021278 389.21069016897115Q915.1644578420702 389.21069016897115 921.4876426104403 387.0759397557181Q927.8108273788104 384.9411893424649 933.2422809618973 381.2391538156842Q938.7007567021143 377.53711828890346 941.9974598719481 373.051440205359L941.9974598719481 373.051440205359L946.6722930554012 376.94263083204817Q941.4299945722227 385.1303444423735 934.0259235186611 389.99433272573503Q926.6488746222295 394.8583210090966 918.8664933688509 396.99307142234966Q911.0841121154725 399.12782183560284 904.4636836186747 399.12782183560284ZM877.6036594316671 331.6264733253963L877.6036594316671 331.6264733253963L927.216339921955 331.6264733253963Q927.216339921955 324.6277346287817 925.189678137221 318.0883726033733Q923.1359941953572 311.5760327350948 918.4611610119042 307.38759837997793Q913.7863278284511 303.2261861819908 906.220123832111 303.2261861819908L906.220123832111 303.2261861819908Q894.9248621518601 303.2261861819908 887.4397246269094 309.9276811501778Q879.9545871019585 316.62917611836485 877.6036594316671 331.6264733253963Z " fill="#fffddc" transform="matrix(0.9242902754547697,0,0,0.9242902754547697,0,0.4118255809931526)"/></g></svg>